<mxfile host="app.diagrams.net" modified="2023-03-16T07:04:00.115Z" agent="5.0 (Macintosh; Intel Mac OS X 10_15_7) AppleWebKit/537.36 (KHTML, like Gecko) Chrome/111.0.0.0 Safari/537.36" etag="cR9n-nbbgrQoZVxKKCbV" version="20.8.18" type="github">
  <diagram name="第 1 页" id="1W8QA7wV8O0uVPWve4Lc">
    <mxGraphModel dx="910" dy="579" grid="1" gridSize="10" guides="1" tooltips="1" connect="1" arrows="1" fold="1" page="1" pageScale="1" pageWidth="1169" pageHeight="1654" math="0" shadow="0">
      <root>
        <mxCell id="0" />
        <mxCell id="1" parent="0" />
        <mxCell id="OMDAk7WNhCOc_WKuXfqj-17" value="" style="edgeStyle=orthogonalEdgeStyle;rounded=0;orthogonalLoop=1;jettySize=auto;html=1;strokeWidth=2;fontSize=12;endArrow=block;endFill=1;" edge="1" parent="1" source="OMDAk7WNhCOc_WKuXfqj-1" target="OMDAk7WNhCOc_WKuXfqj-2">
          <mxGeometry relative="1" as="geometry" />
        </mxCell>
        <mxCell id="OMDAk7WNhCOc_WKuXfqj-1" value="StockMemoViewController" style="rounded=1;whiteSpace=wrap;html=1;strokeWidth=2;strokeColor=#A680B8;" vertex="1" parent="1">
          <mxGeometry x="425" y="300" width="180" height="60" as="geometry" />
        </mxCell>
        <mxCell id="OMDAk7WNhCOc_WKuXfqj-10" value="" style="edgeStyle=orthogonalEdgeStyle;rounded=0;orthogonalLoop=1;jettySize=auto;html=1;strokeWidth=2;entryX=0.5;entryY=0;entryDx=0;entryDy=0;endArrow=block;endFill=1;" edge="1" parent="1" source="OMDAk7WNhCOc_WKuXfqj-2" target="OMDAk7WNhCOc_WKuXfqj-3">
          <mxGeometry relative="1" as="geometry" />
        </mxCell>
        <mxCell id="OMDAk7WNhCOc_WKuXfqj-11" value="" style="edgeStyle=orthogonalEdgeStyle;rounded=0;orthogonalLoop=1;jettySize=auto;html=1;strokeWidth=2;endArrow=block;endFill=1;" edge="1" parent="1" source="OMDAk7WNhCOc_WKuXfqj-2" target="OMDAk7WNhCOc_WKuXfqj-7">
          <mxGeometry relative="1" as="geometry" />
        </mxCell>
        <mxCell id="OMDAk7WNhCOc_WKuXfqj-15" style="edgeStyle=orthogonalEdgeStyle;rounded=0;orthogonalLoop=1;jettySize=auto;html=1;entryX=1;entryY=0.5;entryDx=0;entryDy=0;strokeWidth=2;fontSize=12;endArrow=block;endFill=1;" edge="1" parent="1" source="OMDAk7WNhCOc_WKuXfqj-2" target="OMDAk7WNhCOc_WKuXfqj-5">
          <mxGeometry relative="1" as="geometry" />
        </mxCell>
        <mxCell id="OMDAk7WNhCOc_WKuXfqj-16" style="edgeStyle=orthogonalEdgeStyle;rounded=0;orthogonalLoop=1;jettySize=auto;html=1;strokeWidth=2;fontSize=12;endArrow=block;endFill=1;" edge="1" parent="1" source="OMDAk7WNhCOc_WKuXfqj-2" target="OMDAk7WNhCOc_WKuXfqj-4">
          <mxGeometry relative="1" as="geometry" />
        </mxCell>
        <mxCell id="OMDAk7WNhCOc_WKuXfqj-2" value="StockMemoView&lt;br&gt;&lt;font style=&quot;font-size: 12px;&quot;&gt;&amp;lt;UICollectionViewDelegate&lt;span style=&quot;background-color: initial;&quot;&gt;&amp;gt;&lt;br style=&quot;&quot;&gt;&lt;/span&gt;&amp;lt;UICollectionViewDataSource&lt;span style=&quot;background-color: initial;&quot;&gt;&amp;gt;&lt;br style=&quot;&quot;&gt;&lt;/span&gt;&amp;lt;UICollectionViewDelegateFlowLayout&lt;span style=&quot;background-color: initial;&quot;&gt;&amp;gt;&lt;/span&gt;&lt;/font&gt;" style="rounded=1;whiteSpace=wrap;html=1;strokeWidth=2;strokeColor=#A680B8;" vertex="1" parent="1">
          <mxGeometry x="400" y="380" width="230" height="90" as="geometry" />
        </mxCell>
        <mxCell id="OMDAk7WNhCOc_WKuXfqj-3" value="UICollectionView" style="rounded=1;whiteSpace=wrap;html=1;strokeWidth=2;strokeColor=#7EA6E0;" vertex="1" parent="1">
          <mxGeometry x="425" y="510" width="180" height="60" as="geometry" />
        </mxCell>
        <mxCell id="OMDAk7WNhCOc_WKuXfqj-4" value="StockMemoCell" style="rounded=1;whiteSpace=wrap;html=1;strokeWidth=2;strokeColor=#A680B8;" vertex="1" parent="1">
          <mxGeometry x="130" y="410" width="180" height="60" as="geometry" />
        </mxCell>
        <mxCell id="OMDAk7WNhCOc_WKuXfqj-5" value="CollectionHeaderResuableView" style="rounded=1;whiteSpace=wrap;html=1;strokeWidth=2;strokeColor=#A680B8;" vertex="1" parent="1">
          <mxGeometry x="130" y="340" width="180" height="60" as="geometry" />
        </mxCell>
        <mxCell id="OMDAk7WNhCOc_WKuXfqj-7" value="SKHttpRequest" style="rounded=1;whiteSpace=wrap;html=1;strokeWidth=2;strokeColor=#A680B8;" vertex="1" parent="1">
          <mxGeometry x="680" y="395" width="180" height="60" as="geometry" />
        </mxCell>
      </root>
    </mxGraphModel>
  </diagram>
</mxfile>
